<?xml version="1.0" encoding="UTF-8" ?>
<svg version="1.1" width="96" height="96" xmlns="http://www.w3.org/2000/svg" shape-rendering="crispEdges">
<rect x="0" y="0" width="12" height="6" fill="#94007A" />
<rect x="12" y="0" width="18" height="6" fill="#D61A88" />
<rect x="30" y="0" width="18" height="6" fill="#E33A85" />
<rect x="48" y="0" width="18" height="6" fill="#F15A81" />
<rect x="66" y="0" width="18" height="6" fill="#FF7A7D" />
<rect x="84" y="0" width="12" height="6" fill="#94007A" />
<rect x="0" y="6" width="6" height="6" fill="#94007A" />
<rect x="6" y="6" width="12" height="12" fill="#E14278" />
<rect x="18" y="6" width="18" height="6" fill="#D61A88" />
<rect x="36" y="6" width="18" height="6" fill="#E33A85" />
<rect x="54" y="6" width="18" height="6" fill="#F15A81" />
<rect x="72" y="6" width="18" height="6" fill="#FF7A7D" />
<rect x="90" y="6" width="6" height="6" fill="#94007A" />
<rect x="0" y="12" width="6" height="18" fill="#EB6969" />
<rect x="18" y="12" width="6" height="18" fill="#E14278" />
<rect x="24" y="12" width="6" height="6" fill="#D61A88" />
<rect x="30" y="12" width="36" height="6" fill="#FAFFFF" />
<rect x="66" y="12" width="12" height="6" fill="#F15A81" />
<rect x="78" y="12" width="18" height="6" fill="#FF7A7D" />
<rect x="6" y="18" width="6" height="18" fill="#EB6969" />
<rect x="12" y="18" width="6" height="6" fill="#E14278" />
<rect x="24" y="18" width="12" height="6" fill="#FAFFFF" />
<rect x="36" y="18" width="12" height="6" fill="#D61A88" />
<rect x="48" y="18" width="12" height="6" fill="#E33A85" />
<rect x="60" y="18" width="12" height="6" fill="#FAFFFF" />
<rect x="72" y="18" width="12" height="12" fill="#F15A81" />
<rect x="84" y="18" width="12" height="6" fill="#FF7A7D" />
<rect x="12" y="24" width="6" height="18" fill="#EB6969" />
<rect x="24" y="24" width="6" height="30" fill="#FAFFFF" />
<rect x="30" y="24" width="6" height="18" fill="#E14278" />
<rect x="36" y="24" width="6" height="6" fill="#D61A88" />
<rect x="42" y="24" width="12" height="6" fill="#FAFFFF" />
<rect x="54" y="24" width="12" height="6" fill="#E33A85" />
<rect x="66" y="24" width="6" height="30" fill="#FAFFFF" />
<rect x="84" y="24" width="6" height="18" fill="#F15A81" />
<rect x="90" y="24" width="6" height="6" fill="#FF7A7D" />
<rect x="0" y="30" width="6" height="18" fill="#F59159" />
<rect x="18" y="30" width="6" height="18" fill="#EB6969" />
<rect x="36" y="30" width="6" height="12" fill="#FAFFFF" />
<rect x="42" y="30" width="12" height="6" fill="#D61A88" />
<rect x="54" y="30" width="6" height="12" fill="#FAFFFF" />
<rect x="60" y="30" width="6" height="6" fill="#E33A85" />
<rect x="72" y="30" width="6" height="18" fill="#E33A85" />
<rect x="78" y="30" width="6" height="6" fill="#F15A81" />
<rect x="90" y="30" width="6" height="18" fill="#F15A81" />
<rect x="6" y="36" width="6" height="18" fill="#F59159" />
<rect x="42" y="36" width="6" height="6" fill="#E14278" />
<rect x="48" y="36" width="6" height="6" fill="#D61A88" />
<rect x="60" y="36" width="6" height="12" fill="#D61A88" />
<rect x="78" y="36" width="6" height="18" fill="#E33A85" />
<rect x="12" y="42" width="6" height="18" fill="#F59159" />
<rect x="30" y="42" width="6" height="6" fill="#EB6969" />
<rect x="36" y="42" width="6" height="6" fill="#E14278" />
<rect x="42" y="42" width="12" height="6" fill="#FAFFFF" />
<rect x="54" y="42" width="6" height="6" fill="#D61A88" />
<rect x="84" y="42" width="6" height="18" fill="#E33A85" />
<rect x="0" y="48" width="6" height="18" fill="#FFB84A" />
<rect x="18" y="48" width="6" height="18" fill="#F59159" />
<rect x="30" y="48" width="6" height="12" fill="#FAFFFF" />
<rect x="36" y="48" width="6" height="6" fill="#EB6969" />
<rect x="42" y="48" width="18" height="6" fill="#E14278" />
<rect x="60" y="48" width="6" height="12" fill="#FAFFFF" />
<rect x="72" y="48" width="6" height="18" fill="#D61A88" />
<rect x="90" y="48" width="6" height="18" fill="#E33A85" />
<rect x="6" y="54" width="6" height="18" fill="#FFB84A" />
<rect x="24" y="54" width="6" height="6" fill="#EB6969" />
<rect x="36" y="54" width="24" height="6" fill="#FAFFFF" />
<rect x="66" y="54" width="6" height="6" fill="#D61A88" />
<rect x="78" y="54" width="6" height="18" fill="#D61A88" />
<rect x="12" y="60" width="6" height="12" fill="#FFB84A" />
<rect x="24" y="60" width="6" height="12" fill="#F59159" />
<rect x="30" y="60" width="12" height="6" fill="#EB6969" />
<rect x="42" y="60" width="12" height="6" fill="#E14278" />
<rect x="54" y="60" width="12" height="6" fill="#D61A88" />
<rect x="66" y="60" width="6" height="12" fill="#E14278" />
<rect x="84" y="60" width="6" height="12" fill="#D61A88" />
<rect x="0" y="66" width="6" height="6" fill="#FFF540" />
<rect x="18" y="66" width="6" height="6" fill="#FFB84A" />
<rect x="30" y="66" width="12" height="6" fill="#F59159" />
<rect x="42" y="66" width="18" height="6" fill="#EB6969" />
<rect x="60" y="66" width="6" height="6" fill="#E14278" />
<rect x="72" y="66" width="6" height="6" fill="#E14278" />
<rect x="90" y="66" width="6" height="6" fill="#FFF540" />
<rect x="0" y="72" width="6" height="12" fill="#94007A" />
<rect x="6" y="72" width="84" height="6" fill="#FFF540" />
<rect x="90" y="72" width="6" height="12" fill="#94007A" />
<rect x="6" y="78" width="84" height="12" fill="#42004E" />
<rect x="0" y="84" width="6" height="6" fill="#42004E" />
<rect x="90" y="84" width="6" height="6" fill="#42004E" />
<rect x="0" y="90" width="12" height="6" fill="#94007A" />
<rect x="12" y="90" width="72" height="6" fill="#42004E" />
<rect x="84" y="90" width="12" height="6" fill="#94007A" />
</svg>