<?xml version="1.0" encoding="UTF-8" ?>
<svg version="1.1" width="96" height="96" xmlns="http://www.w3.org/2000/svg" shape-rendering="crispEdges">
<rect x="0" y="18" width="12" height="6" fill="#670050" />
<rect x="12" y="18" width="18" height="6" fill="#BD065E" />
<rect x="30" y="18" width="18" height="6" fill="#D1145B" />
<rect x="48" y="18" width="18" height="6" fill="#E82957" />
<rect x="66" y="18" width="18" height="6" fill="#FF4453" />
<rect x="84" y="18" width="12" height="6" fill="#670050" />
<rect x="0" y="24" width="6" height="6" fill="#670050" />
<rect x="6" y="24" width="12" height="12" fill="#CE194E" />
<rect x="18" y="24" width="18" height="6" fill="#BD065E" />
<rect x="36" y="24" width="18" height="6" fill="#D1145B" />
<rect x="54" y="24" width="18" height="6" fill="#E82957" />
<rect x="72" y="24" width="18" height="6" fill="#FF4453" />
<rect x="90" y="24" width="6" height="6" fill="#670050" />
<rect x="0" y="30" width="6" height="18" fill="#DE3541" />
<rect x="18" y="30" width="6" height="18" fill="#CE194E" />
<rect x="24" y="30" width="6" height="6" fill="#BD065E" />
<rect x="30" y="30" width="36" height="6" fill="#F6FFFF" />
<rect x="66" y="30" width="12" height="6" fill="#E82957" />
<rect x="78" y="30" width="18" height="6" fill="#FF4453" />
<rect x="6" y="36" width="6" height="18" fill="#DE3541" />
<rect x="12" y="36" width="6" height="6" fill="#CE194E" />
<rect x="24" y="36" width="12" height="6" fill="#F6FFFF" />
<rect x="36" y="36" width="12" height="6" fill="#BD065E" />
<rect x="48" y="36" width="12" height="6" fill="#D1145B" />
<rect x="60" y="36" width="12" height="6" fill="#F6FFFF" />
<rect x="72" y="36" width="12" height="12" fill="#E82957" />
<rect x="84" y="36" width="12" height="6" fill="#FF4453" />
<rect x="12" y="42" width="6" height="18" fill="#DE3541" />
<rect x="24" y="42" width="6" height="30" fill="#F6FFFF" />
<rect x="30" y="42" width="6" height="18" fill="#CE194E" />
<rect x="36" y="42" width="6" height="6" fill="#BD065E" />
<rect x="42" y="42" width="12" height="6" fill="#F6FFFF" />
<rect x="54" y="42" width="12" height="6" fill="#D1145B" />
<rect x="66" y="42" width="6" height="30" fill="#F6FFFF" />
<rect x="84" y="42" width="6" height="18" fill="#E82957" />
<rect x="90" y="42" width="6" height="6" fill="#FF4453" />
<rect x="0" y="48" width="6" height="18" fill="#EE5C33" />
<rect x="18" y="48" width="6" height="18" fill="#DE3541" />
<rect x="36" y="48" width="6" height="12" fill="#F6FFFF" />
<rect x="42" y="48" width="12" height="6" fill="#BD065E" />
<rect x="54" y="48" width="6" height="12" fill="#F6FFFF" />
<rect x="60" y="48" width="6" height="6" fill="#D1145B" />
<rect x="72" y="48" width="6" height="18" fill="#D1145B" />
<rect x="78" y="48" width="6" height="6" fill="#E82957" />
<rect x="90" y="48" width="6" height="18" fill="#E82957" />
<rect x="6" y="54" width="6" height="18" fill="#EE5C33" />
<rect x="42" y="54" width="6" height="6" fill="#CE194E" />
<rect x="48" y="54" width="6" height="6" fill="#BD065E" />
<rect x="60" y="54" width="6" height="12" fill="#BD065E" />
<rect x="78" y="54" width="6" height="18" fill="#D1145B" />
<rect x="12" y="60" width="6" height="18" fill="#EE5C33" />
<rect x="30" y="60" width="6" height="6" fill="#DE3541" />
<rect x="36" y="60" width="6" height="6" fill="#CE194E" />
<rect x="42" y="60" width="12" height="6" fill="#F6FFFF" />
<rect x="54" y="60" width="6" height="6" fill="#BD065E" />
<rect x="84" y="60" width="6" height="18" fill="#D1145B" />
<rect x="0" y="66" width="6" height="18" fill="#FF8D28" />
<rect x="18" y="66" width="6" height="18" fill="#EE5C33" />
<rect x="30" y="66" width="6" height="12" fill="#F6FFFF" />
<rect x="36" y="66" width="6" height="6" fill="#DE3541" />
<rect x="42" y="66" width="18" height="6" fill="#CE194E" />
<rect x="60" y="66" width="6" height="12" fill="#F6FFFF" />
<rect x="72" y="66" width="6" height="18" fill="#BD065E" />
<rect x="90" y="66" width="6" height="18" fill="#D1145B" />
<rect x="6" y="72" width="6" height="18" fill="#FF8D28" />
<rect x="24" y="72" width="6" height="6" fill="#DE3541" />
<rect x="36" y="72" width="24" height="6" fill="#F6FFFF" />
<rect x="66" y="72" width="6" height="6" fill="#BD065E" />
<rect x="78" y="72" width="6" height="18" fill="#BD065E" />
<rect x="12" y="78" width="6" height="12" fill="#FF8D28" />
<rect x="24" y="78" width="6" height="12" fill="#EE5C33" />
<rect x="30" y="78" width="12" height="6" fill="#DE3541" />
<rect x="42" y="78" width="12" height="6" fill="#CE194E" />
<rect x="54" y="78" width="12" height="6" fill="#BD065E" />
<rect x="66" y="78" width="6" height="12" fill="#CE194E" />
<rect x="84" y="78" width="6" height="12" fill="#BD065E" />
<rect x="0" y="84" width="6" height="6" fill="#FFED21" />
<rect x="18" y="84" width="6" height="6" fill="#FF8D28" />
<rect x="30" y="84" width="12" height="6" fill="#EE5C33" />
<rect x="42" y="84" width="18" height="6" fill="#DE3541" />
<rect x="60" y="84" width="6" height="6" fill="#CE194E" />
<rect x="72" y="84" width="6" height="6" fill="#CE194E" />
<rect x="90" y="84" width="6" height="6" fill="#FFED21" />
<rect x="0" y="90" width="6" height="6" fill="#670050" />
<rect x="6" y="90" width="84" height="6" fill="#FFED21" />
<rect x="90" y="90" width="6" height="6" fill="#670050" />
</svg>