<?xml version="1.0" encoding="UTF-8" ?>
<svg version="1.1" width="96" height="96" xmlns="http://www.w3.org/2000/svg" shape-rendering="crispEdges">
<rect x="0" y="0" width="12" height="6" fill="#D41E3C" />
<rect x="12" y="0" width="72" height="6" fill="#ED4C40" />
<rect x="84" y="0" width="12" height="6" fill="#D41E3C" />
<rect x="0" y="6" width="6" height="6" fill="#D41E3C" />
<rect x="6" y="6" width="24" height="6" fill="#ED4C40" />
<rect x="30" y="6" width="36" height="12" fill="#FAFFFF" />
<rect x="66" y="6" width="24" height="6" fill="#ED4C40" />
<rect x="90" y="6" width="6" height="6" fill="#D41E3C" />
<rect x="0" y="12" width="24" height="54" fill="#ED4C40" />
<rect x="24" y="12" width="6" height="12" fill="#FAFFFF" />
<rect x="66" y="12" width="6" height="12" fill="#FAFFFF" />
<rect x="72" y="12" width="24" height="54" fill="#ED4C40" />
<rect x="30" y="18" width="6" height="6" fill="#FAFFFF" />
<rect x="36" y="18" width="6" height="6" fill="#D41E3C" />
<rect x="42" y="18" width="12" height="6" fill="#FAFFFF" />
<rect x="54" y="18" width="6" height="6" fill="#D41E3C" />
<rect x="60" y="18" width="6" height="6" fill="#FAFFFF" />
<rect x="24" y="24" width="12" height="6" fill="#D41E3C" />
<rect x="36" y="24" width="6" height="12" fill="#FAFFFF" />
<rect x="42" y="24" width="12" height="6" fill="#D41E3C" />
<rect x="54" y="24" width="6" height="12" fill="#FAFFFF" />
<rect x="60" y="24" width="12" height="6" fill="#D41E3C" />
<rect x="24" y="30" width="12" height="12" fill="#FAFFFF" />
<rect x="42" y="30" width="12" height="6" fill="#FAFFFF" />
<rect x="60" y="30" width="12" height="12" fill="#FAFFFF" />
<rect x="36" y="36" width="24" height="12" fill="#ED4C40" />
<rect x="24" y="42" width="6" height="12" fill="#FAFFFF" />
<rect x="30" y="42" width="6" height="12" fill="#ED4C40" />
<rect x="60" y="42" width="6" height="12" fill="#ED4C40" />
<rect x="66" y="42" width="6" height="12" fill="#FAFFFF" />
<rect x="36" y="48" width="6" height="6" fill="#ED4C40" />
<rect x="42" y="48" width="12" height="12" fill="#FAFFFF" />
<rect x="54" y="48" width="6" height="6" fill="#ED4C40" />
<rect x="24" y="54" width="6" height="6" fill="#D41E3C" />
<rect x="30" y="54" width="12" height="6" fill="#FAFFFF" />
<rect x="54" y="54" width="12" height="6" fill="#FAFFFF" />
<rect x="66" y="54" width="6" height="6" fill="#D41E3C" />
<rect x="24" y="60" width="6" height="12" fill="#ED4C40" />
<rect x="30" y="60" width="36" height="6" fill="#D41E3C" />
<rect x="66" y="60" width="6" height="12" fill="#ED4C40" />
<rect x="0" y="66" width="6" height="6" fill="#FF9757" />
<rect x="6" y="66" width="18" height="6" fill="#ED4C40" />
<rect x="30" y="66" width="36" height="6" fill="#ED4C40" />
<rect x="72" y="66" width="18" height="6" fill="#ED4C40" />
<rect x="90" y="66" width="6" height="6" fill="#FF9757" />
<rect x="0" y="72" width="6" height="12" fill="#D41E3C" />
<rect x="6" y="72" width="84" height="6" fill="#FF9757" />
<rect x="90" y="72" width="6" height="12" fill="#D41E3C" />
<rect x="6" y="78" width="84" height="12" fill="#9B0E3E" />
<rect x="0" y="84" width="6" height="6" fill="#9B0E3E" />
<rect x="90" y="84" width="6" height="6" fill="#9B0E3E" />
<rect x="0" y="90" width="12" height="6" fill="#D41E3C" />
<rect x="12" y="90" width="72" height="6" fill="#9B0E3E" />
<rect x="84" y="90" width="12" height="6" fill="#D41E3C" />
</svg>