<?xml version="1.0" encoding="UTF-8" ?>
<svg version="1.1" width="96" height="96" xmlns="http://www.w3.org/2000/svg" shape-rendering="crispEdges">
<rect x="0" y="18" width="12" height="6" fill="#BA081E" />
<rect x="12" y="18" width="72" height="6" fill="#E11F21" />
<rect x="84" y="18" width="12" height="6" fill="#BA081E" />
<rect x="0" y="24" width="6" height="6" fill="#BA081E" />
<rect x="6" y="24" width="24" height="6" fill="#E11F21" />
<rect x="30" y="24" width="36" height="12" fill="#F6FFFF" />
<rect x="66" y="24" width="24" height="6" fill="#E11F21" />
<rect x="90" y="24" width="6" height="6" fill="#BA081E" />
<rect x="0" y="30" width="24" height="54" fill="#E11F21" />
<rect x="24" y="30" width="6" height="12" fill="#F6FFFF" />
<rect x="66" y="30" width="6" height="12" fill="#F6FFFF" />
<rect x="72" y="30" width="24" height="54" fill="#E11F21" />
<rect x="30" y="36" width="6" height="6" fill="#F6FFFF" />
<rect x="36" y="36" width="6" height="6" fill="#BA081E" />
<rect x="42" y="36" width="12" height="6" fill="#F6FFFF" />
<rect x="54" y="36" width="6" height="6" fill="#BA081E" />
<rect x="60" y="36" width="6" height="6" fill="#F6FFFF" />
<rect x="24" y="42" width="12" height="6" fill="#BA081E" />
<rect x="36" y="42" width="6" height="12" fill="#F6FFFF" />
<rect x="42" y="42" width="12" height="6" fill="#BA081E" />
<rect x="54" y="42" width="6" height="12" fill="#F6FFFF" />
<rect x="60" y="42" width="12" height="6" fill="#BA081E" />
<rect x="24" y="48" width="12" height="12" fill="#F6FFFF" />
<rect x="42" y="48" width="12" height="6" fill="#F6FFFF" />
<rect x="60" y="48" width="12" height="12" fill="#F6FFFF" />
<rect x="36" y="54" width="24" height="12" fill="#E11F21" />
<rect x="24" y="60" width="6" height="12" fill="#F6FFFF" />
<rect x="30" y="60" width="6" height="12" fill="#E11F21" />
<rect x="60" y="60" width="6" height="12" fill="#E11F21" />
<rect x="66" y="60" width="6" height="12" fill="#F6FFFF" />
<rect x="36" y="66" width="6" height="6" fill="#E11F21" />
<rect x="42" y="66" width="12" height="12" fill="#F6FFFF" />
<rect x="54" y="66" width="6" height="6" fill="#E11F21" />
<rect x="24" y="72" width="6" height="6" fill="#BA081E" />
<rect x="30" y="72" width="12" height="6" fill="#F6FFFF" />
<rect x="54" y="72" width="12" height="6" fill="#F6FFFF" />
<rect x="66" y="72" width="6" height="6" fill="#BA081E" />
<rect x="24" y="78" width="6" height="12" fill="#E11F21" />
<rect x="30" y="78" width="36" height="6" fill="#BA081E" />
<rect x="66" y="78" width="6" height="12" fill="#E11F21" />
<rect x="0" y="84" width="6" height="6" fill="#FF6331" />
<rect x="6" y="84" width="18" height="6" fill="#E11F21" />
<rect x="30" y="84" width="36" height="6" fill="#E11F21" />
<rect x="72" y="84" width="18" height="6" fill="#E11F21" />
<rect x="90" y="84" width="6" height="6" fill="#FF6331" />
<rect x="0" y="90" width="6" height="6" fill="#BA081E" />
<rect x="6" y="90" width="84" height="6" fill="#FF6331" />
<rect x="90" y="90" width="6" height="6" fill="#BA081E" />
</svg>