<?xml version="1.0" encoding="UTF-8" ?>
<svg version="1.1" width="96" height="96" xmlns="http://www.w3.org/2000/svg" shape-rendering="crispEdges">
<rect x="0" y="18" width="12" height="6" fill="#010B41" />
<rect x="12" y="18" width="72" height="6" fill="#071A68" />
<rect x="84" y="18" width="12" height="6" fill="#010B41" />
<rect x="0" y="24" width="6" height="6" fill="#010B41" />
<rect x="6" y="24" width="54" height="6" fill="#071A68" />
<rect x="60" y="24" width="12" height="6" fill="#FFFFFF" />
<rect x="72" y="24" width="18" height="6" fill="#071A68" />
<rect x="90" y="24" width="6" height="6" fill="#010B41" />
<rect x="0" y="30" width="54" height="6" fill="#071A68" />
<rect x="54" y="30" width="6" height="6" fill="#FFFFFF" />
<rect x="60" y="30" width="12" height="6" fill="#071A68" />
<rect x="72" y="30" width="6" height="6" fill="#FFFFFF" />
<rect x="78" y="30" width="18" height="6" fill="#071A68" />
<rect x="0" y="36" width="48" height="12" fill="#071A68" />
<rect x="48" y="36" width="6" height="36" fill="#FFFFFF" />
<rect x="54" y="36" width="6" height="12" fill="#071A68" />
<rect x="60" y="36" width="12" height="12" fill="#FFFFFF" />
<rect x="72" y="36" width="6" height="12" fill="#071A68" />
<rect x="78" y="36" width="6" height="12" fill="#FFFFFF" />
<rect x="84" y="36" width="12" height="48" fill="#071A68" />
<rect x="0" y="48" width="42" height="6" fill="#071A68" />
<rect x="42" y="48" width="6" height="30" fill="#FFFFFF" />
<rect x="54" y="48" width="6" height="18" fill="#FFFFFF" />
<rect x="60" y="48" width="12" height="6" fill="#071A68" />
<rect x="72" y="48" width="6" height="6" fill="#FFFFFF" />
<rect x="78" y="48" width="6" height="6" fill="#010B41" />
<rect x="0" y="54" width="12" height="12" fill="#FFFFFF" />
<rect x="12" y="54" width="24" height="6" fill="#071A68" />
<rect x="36" y="54" width="6" height="12" fill="#FFFFFF" />
<rect x="60" y="54" width="12" height="6" fill="#FFFFFF" />
<rect x="72" y="54" width="6" height="6" fill="#010B41" />
<rect x="78" y="54" width="6" height="36" fill="#071A68" />
<rect x="12" y="60" width="12" height="12" fill="#FFFFFF" />
<rect x="24" y="60" width="6" height="6" fill="#071A68" />
<rect x="30" y="60" width="6" height="12" fill="#FFFFFF" />
<rect x="60" y="60" width="12" height="6" fill="#010B41" />
<rect x="72" y="60" width="6" height="30" fill="#071A68" />
<rect x="0" y="66" width="12" height="6" fill="#010B41" />
<rect x="24" y="66" width="6" height="12" fill="#FFFFFF" />
<rect x="36" y="66" width="6" height="12" fill="#071A68" />
<rect x="54" y="66" width="6" height="6" fill="#010B41" />
<rect x="60" y="66" width="12" height="24" fill="#071A68" />
<rect x="0" y="72" width="12" height="12" fill="#071A68" />
<rect x="12" y="72" width="12" height="6" fill="#010B41" />
<rect x="30" y="72" width="6" height="6" fill="#071A68" />
<rect x="48" y="72" width="6" height="6" fill="#010B41" />
<rect x="54" y="72" width="6" height="18" fill="#071A68" />
<rect x="12" y="78" width="12" height="12" fill="#071A68" />
<rect x="24" y="78" width="6" height="6" fill="#010B41" />
<rect x="30" y="78" width="12" height="6" fill="#FFFFFF" />
<rect x="42" y="78" width="6" height="6" fill="#010B41" />
<rect x="48" y="78" width="6" height="12" fill="#071A68" />
<rect x="0" y="84" width="6" height="6" fill="#2356BD" />
<rect x="6" y="84" width="6" height="6" fill="#071A68" />
<rect x="24" y="84" width="6" height="6" fill="#071A68" />
<rect x="30" y="84" width="12" height="6" fill="#010B41" />
<rect x="42" y="84" width="6" height="6" fill="#071A68" />
<rect x="84" y="84" width="6" height="6" fill="#071A68" />
<rect x="90" y="84" width="6" height="6" fill="#2356BD" />
<rect x="0" y="90" width="6" height="6" fill="#010B41" />
<rect x="6" y="90" width="84" height="6" fill="#2356BD" />
<rect x="90" y="90" width="6" height="6" fill="#010B41" />
</svg>