<?xml version="1.0" encoding="UTF-8" ?>
<svg version="1.1" width="96" height="96" xmlns="http://www.w3.org/2000/svg" shape-rendering="crispEdges">
<rect x="0" y="0" width="12" height="6" fill="#032769" />
<rect x="12" y="0" width="72" height="6" fill="#144491" />
<rect x="84" y="0" width="12" height="6" fill="#032769" />
<rect x="0" y="6" width="6" height="6" fill="#032769" />
<rect x="6" y="6" width="54" height="6" fill="#144491" />
<rect x="60" y="6" width="12" height="6" fill="#FFFFFF" />
<rect x="72" y="6" width="18" height="6" fill="#144491" />
<rect x="90" y="6" width="6" height="6" fill="#032769" />
<rect x="0" y="12" width="54" height="6" fill="#144491" />
<rect x="54" y="12" width="6" height="6" fill="#FFFFFF" />
<rect x="60" y="12" width="12" height="6" fill="#144491" />
<rect x="72" y="12" width="6" height="6" fill="#FFFFFF" />
<rect x="78" y="12" width="18" height="6" fill="#144491" />
<rect x="0" y="18" width="48" height="12" fill="#144491" />
<rect x="48" y="18" width="6" height="36" fill="#FFFFFF" />
<rect x="54" y="18" width="6" height="12" fill="#144491" />
<rect x="60" y="18" width="12" height="12" fill="#FFFFFF" />
<rect x="72" y="18" width="6" height="12" fill="#144491" />
<rect x="78" y="18" width="6" height="12" fill="#FFFFFF" />
<rect x="84" y="18" width="12" height="48" fill="#144491" />
<rect x="0" y="30" width="42" height="6" fill="#144491" />
<rect x="42" y="30" width="6" height="30" fill="#FFFFFF" />
<rect x="54" y="30" width="6" height="18" fill="#FFFFFF" />
<rect x="60" y="30" width="12" height="6" fill="#144491" />
<rect x="72" y="30" width="6" height="6" fill="#FFFFFF" />
<rect x="78" y="30" width="6" height="6" fill="#032769" />
<rect x="0" y="36" width="12" height="12" fill="#FFFFFF" />
<rect x="12" y="36" width="24" height="6" fill="#144491" />
<rect x="36" y="36" width="6" height="12" fill="#FFFFFF" />
<rect x="60" y="36" width="12" height="6" fill="#FFFFFF" />
<rect x="72" y="36" width="6" height="6" fill="#032769" />
<rect x="78" y="36" width="6" height="36" fill="#144491" />
<rect x="12" y="42" width="12" height="12" fill="#FFFFFF" />
<rect x="24" y="42" width="6" height="6" fill="#144491" />
<rect x="30" y="42" width="6" height="12" fill="#FFFFFF" />
<rect x="60" y="42" width="12" height="6" fill="#032769" />
<rect x="72" y="42" width="6" height="30" fill="#144491" />
<rect x="0" y="48" width="12" height="6" fill="#032769" />
<rect x="24" y="48" width="6" height="12" fill="#FFFFFF" />
<rect x="36" y="48" width="6" height="12" fill="#144491" />
<rect x="54" y="48" width="6" height="6" fill="#032769" />
<rect x="60" y="48" width="12" height="24" fill="#144491" />
<rect x="0" y="54" width="12" height="12" fill="#144491" />
<rect x="12" y="54" width="12" height="6" fill="#032769" />
<rect x="30" y="54" width="6" height="6" fill="#144491" />
<rect x="48" y="54" width="6" height="6" fill="#032769" />
<rect x="54" y="54" width="6" height="18" fill="#144491" />
<rect x="12" y="60" width="12" height="12" fill="#144491" />
<rect x="24" y="60" width="6" height="6" fill="#032769" />
<rect x="30" y="60" width="12" height="6" fill="#FFFFFF" />
<rect x="42" y="60" width="6" height="6" fill="#032769" />
<rect x="48" y="60" width="6" height="12" fill="#144491" />
<rect x="0" y="66" width="6" height="6" fill="#488BD4" />
<rect x="6" y="66" width="6" height="6" fill="#144491" />
<rect x="24" y="66" width="6" height="6" fill="#144491" />
<rect x="30" y="66" width="12" height="6" fill="#032769" />
<rect x="42" y="66" width="6" height="6" fill="#144491" />
<rect x="84" y="66" width="6" height="6" fill="#144491" />
<rect x="90" y="66" width="6" height="6" fill="#488BD4" />
<rect x="0" y="72" width="6" height="12" fill="#032769" />
<rect x="6" y="72" width="84" height="6" fill="#488BD4" />
<rect x="90" y="72" width="6" height="12" fill="#032769" />
<rect x="6" y="78" width="84" height="12" fill="#0C0B42" />
<rect x="0" y="84" width="6" height="6" fill="#0C0B42" />
<rect x="90" y="84" width="6" height="6" fill="#0C0B42" />
<rect x="0" y="90" width="12" height="6" fill="#032769" />
<rect x="12" y="90" width="72" height="6" fill="#0C0B42" />
<rect x="84" y="90" width="12" height="6" fill="#032769" />
</svg>